<svg width="334" height="270" viewBox="0 0 334 270" fill="none" xmlns="http://www.w3.org/2000/svg">
<path d="M101.539 159.068C97.1599 157.118 95.1905 151.988 97.1401 147.609L158.541 9.69952C160.491 5.32058 165.621 3.35124 170 5.30087V5.30087C174.379 7.2505 176.349 12.3808 174.399 16.7598L112.998 154.669C111.048 159.048 105.918 161.017 101.539 159.068V159.068Z" fill="black"/>
<path d="M258.524 237.953C253.788 236.088 251.461 230.736 253.326 225.999L312.757 75.126C314.623 70.3897 319.975 68.0626 324.711 69.9283V69.9283C329.447 71.794 331.774 77.1459 329.909 81.8823L270.478 232.756C268.612 237.492 263.26 239.819 258.524 237.953V237.953Z" fill="black"/>
<path d="M63.9268 229.271C63.9268 224.024 68.1801 219.771 73.4268 219.771L260.427 219.771C265.674 219.771 269.927 224.024 269.927 229.271V229.271C269.927 234.517 265.674 238.771 260.427 238.771L73.4269 238.771C68.1802 238.771 63.9268 234.517 63.9268 229.271V229.271Z" fill="black"/>
<path d="M62.9268 260.271C62.9268 255.024 67.1801 250.771 72.4268 250.771L260.427 250.771C265.674 250.771 269.927 255.024 269.927 260.271V260.271C269.927 265.517 265.674 269.771 260.427 269.771H72.4269C67.1801 269.771 62.9268 265.517 62.9268 260.271V260.271Z" fill="black"/>
<path d="M74.137 238.199C69.6486 239.922 64.6134 237.68 62.8905 233.192L4.04643 79.8976C2.32351 75.4093 4.56534 70.3741 9.05369 68.6511V68.6511C13.542 66.9282 18.5772 69.1701 20.3002 73.6584L79.1442 226.952C80.8671 231.441 78.6253 236.476 74.137 238.199V238.199Z" fill="black"/>
<path d="M220.27 155.237C217.319 151.46 217.989 146.006 221.766 143.055L315.335 69.9505C319.113 66.9994 324.567 67.6691 327.518 71.4463V71.4463C330.469 75.2236 329.799 80.6779 326.022 83.629L232.453 156.733C228.676 159.684 223.221 159.015 220.27 155.237V155.237Z" fill="black"/>
<path d="M111.581 156.699C108.565 160.424 103.099 160.998 99.3743 157.982L6.74494 82.972C3.01981 79.9555 2.44539 74.4903 5.46194 70.7651V70.7651C8.47849 67.04 13.9437 66.4656 17.6688 69.4821L110.298 144.492C114.023 147.508 114.598 152.974 111.581 156.699V156.699Z" fill="black"/>
<path d="M230.26 158.215C225.865 160.127 220.752 158.113 218.84 153.717L158.473 14.8809C156.561 10.4851 158.575 5.37215 162.971 3.46081V3.46081C167.367 1.54946 172.48 3.5635 174.391 7.95929L234.759 146.795C236.67 151.191 234.656 156.304 230.26 158.215V158.215Z" fill="black"/>
</svg>
